<?xml version="1.0" encoding="UTF-8"?>
<svg id="Layer_2" data-name="Layer 2" xmlns="http://www.w3.org/2000/svg" viewBox="0 0 495.83 66.83">
 <defs>
 <style>
 .cls-1 {
 fill: #231f20;
 }
 </style>
 </defs>
 <g id="Layer_1-2" data-name="Layer 1">
 <g>
 <g id="Yk8VwV">
 <g>
 <path class="cls-1" d="M87.47,49.53V8h-3.46v-3.46h13.84v10.38h3.46v10.38h3.46v10.38h3.46v10.38h3.46v6.92h-6.92v-6.92h-3.46v-10.38h-3.46v-10.38h-3.46v-10.38h-3.46v34.61h3.46v3.46h-10.38v-3.46h3.46ZM115.16,35.69v10.38h-3.46v-10.38h3.46ZM118.62,25.31v10.38h-3.46v-10.38h3.46ZM122.08,14.92v10.38h-3.46v-10.38h3.46ZM125.54,49.53V14.92h-3.46V4.54h13.84v3.46h-3.46v41.53h3.46v3.46h-13.84v-3.46h3.46Z"/>
 <path class="cls-1" d="M142.84,46.07v-20.76h3.46v-3.46h3.46v-3.46h20.76v3.46h3.46v3.46h3.46v20.76h-3.46v3.46h-3.46v3.46h-20.76v-3.46h-3.46v-3.46h-3.46ZM153.22,46.07v3.46h13.84v-3.46h3.46v-20.76h-3.46v-3.46h-13.84v3.46h-3.46v20.76h3.46Z"/>
 <path class="cls-1" d="M205.13,42.61h-3.46v-3.46h-6.92v-3.46h-6.92v-3.46h-3.46v-10.38h3.46v-3.46h17.3v3.46h-13.84v6.92h3.46v3.46h6.92v3.46h6.92v3.46h3.46v10.38h-3.46v3.46h-17.3v-3.46h13.84v-6.92ZM191.29,46.07v3.46h-3.46v3.46h-3.46v-10.38h3.46v3.46h3.46ZM205.13,25.31v-3.46h3.46v-3.46h3.46v10.38h-3.46v-3.46h-3.46Z"/>
 <path class="cls-1" d="M222.44,49.53v-27.69h-3.46v-3.46h3.46v-3.46h3.46v-6.92h3.46v10.38h10.38v3.46h-10.38v27.69h6.92v3.46h-10.38v-3.46h-3.46ZM239.74,46.07v3.46h-3.46v-3.46h3.46Z"/>
 <path class="cls-1" d="M250.13,49.53V11.46h-3.46v-3.46h6.92v-3.46h3.46v44.99h3.46v3.46h-13.84v-3.46h3.46Z"/>
 <path class="cls-1" d="M277.81,28.77v10.38h3.46v6.92h3.46v6.92h-3.46v6.92h-3.46v-13.84h-3.46v-6.92h-3.46v-10.38h-3.46v-6.92h-3.46v-3.46h13.84v3.46h-3.46v6.92h3.46ZM274.35,63.37v-3.46h3.46v6.92h-6.92v-3.46h3.46ZM288.19,39.15v6.92h-3.46v-6.92h3.46ZM298.57,18.38v3.46h-3.46v6.92h-3.46v-6.92h-3.46v-3.46h10.38ZM291.65,28.77v10.38h-3.46v-10.38h3.46Z"/>
 <path class="cls-1" d="M326.26,49.53V8h-3.46v-3.46h27.69v3.46h3.46v3.46h3.46v13.84h-3.46v3.46h-6.92v-3.46h3.46v-13.84h-3.46v-3.46h-13.84v24.22h6.92v-3.46h6.92v3.46h-3.46v3.46h3.46v3.46h3.46v3.46h3.46v3.46h3.46v3.46h3.46v3.46h-10.38v-3.46h-3.46v-3.46h-3.46v-3.46h-3.46v-3.46h-3.46v-3.46h-3.46v13.84h6.92v3.46h-17.3v-3.46h3.46Z"/>
 <path class="cls-1" d="M371.25,49.53v-24.22h-3.46v-3.46h6.92v-3.46h3.46v31.15h3.46v3.46h-13.84v-3.46h3.46ZM378.17,4.54v6.92h-6.92v-6.92h6.92Z"/>
 <path class="cls-1" d="M392.01,39.15v-3.46h-3.46v-10.38h3.46v-3.46h3.46v17.3h-3.46ZM392.01,46.07v-3.46h3.46v6.92h24.23v3.46h3.46v6.92h-3.46v3.46h-6.92v-3.46h3.46v-6.92h-24.22v-3.46h-3.46v-3.46h3.46ZM395.47,56.45v6.92h17.3v3.46h-20.76v-3.46h-3.46v-6.92h6.92ZM409.32,18.38v3.46h-13.84v-3.46h13.84ZM409.32,39.15v3.46h-13.84v-3.46h13.84ZM416.24,25.31v10.38h-3.46v3.46h-3.46v-17.3h3.46v3.46h3.46ZM412.78,21.84v-3.46h10.38v6.92h-6.92v-3.46h-3.46Z"/>
 <path class="cls-1" d="M433.54,49.53V11.46h-3.46v-3.46h6.92v-3.46h3.46v24.22h3.46v3.46h-3.46v17.3h3.46v3.46h-13.84v-3.46h3.46ZM447.38,25.31v3.46h-3.46v-3.46h3.46ZM450.84,21.84v3.46h-3.46v-3.46h3.46ZM457.77,49.53v-27.69h-6.92v-3.46h10.38v3.46h3.46v27.69h3.46v3.46h-13.84v-3.46h3.46Z"/>
 <path class="cls-1" d="M478.53,49.53v-27.69h-3.46v-3.46h3.46v-3.46h3.46v-6.92h3.46v10.38h10.38v3.46h-10.38v27.69h6.92v3.46h-10.38v-3.46h-3.46ZM495.83,46.07v3.46h-3.46v-3.46h3.46Z"/>
 </g>
 </g>
 <g>
 <path d="M29.92,3.64c-3.87.14-7.76-.1-11.64,0,0,1.21,0,2.43,0,3.64-1.11.01-2.22,0-3.33,0,0,1.21,0,2.43,0,3.64-2.77.03-5.54-.02-8.31,0,0,1.21,0,2.43,0,3.64-2.21.02-4.44-.01-6.65,0v3.64h6.65c0-1.21,0-2.43,0-3.64,2.77-.02,5.54.01,8.31,0,0-1.21,0-2.43,0-3.64,1.11-.01,2.22,0,3.33,0,0-1.21,0-2.43,0-3.64,3.88-.04,7.76.03,11.64,0,0-1.21,0-2.43,0-3.64.55-.02,1.11.01,1.66,0V0s-1.66,0-1.66,0c0,1.21,0,2.43,0,3.64ZM33.24,7.27c-.55.02-1.11-.02-1.66,0v3.64s1.66,0,1.66,0c0-1.21,0-2.43,0-3.64.55-.02,1.11,0,1.66,0,.01.64-.09,3.58.1,3.64h1.57c0-1.21,0-2.43,0-3.64,1.66,0,3.33,0,4.99,0,0,1.21,0,2.43,0,3.64,1.66,0,3.33-.01,4.99,0,0,1.21,0,2.43,0,3.64,2.77,0,5.54-.01,8.31,0,0,1.21,0,2.43,0,3.64h8.31v-3.64c-2.77,0-5.54.01-8.31,0,0-1.21,0-2.43,0-3.64-2.77,0-5.54.02-8.31,0,0-1.21,0-2.43,0-3.64-1.66,0-3.33.01-4.99,0,0-1.21,0-2.43,0-3.64h-4.99c0,1.21,0,2.43,0,3.64-.55,0-1.11,0-1.66,0-.01-.64.09-3.58-.1-3.64h-1.57c0,1.21,0,2.43,0,3.64Z"/>
 <path d="M21.61,18.82c0-.63-.08-3.59.1-3.64h1.57c0,1.21,0,2.43,0,3.64,1.66,0,3.33,0,4.99,0,0-1.21,0-2.43,0-3.64h8.31c0,1.21,0,2.43,0,3.64,2.77.01,5.54,0,8.31,0,0,1.21,0,2.43,0,3.64,4.43.02,8.87-.01,13.3,0,0,1.21,0,2.43,0,3.64,1.66,0,3.33,0,4.99,0v3.64h-4.99c0-1.21,0-2.43,0-3.64-4.43-.02-8.87.02-13.3,0,0-1.21,0-2.43,0-3.64-2.77-.01-5.54,0-8.31,0,0-1.21,0-2.43,0-3.64-2.77-.01-5.54,0-8.31,0,0,1.21,0,2.43,0,3.64h-4.99c0-1.21,0-2.43,0-3.64-.55,0-1.11,0-1.66,0,0,1.21,0,2.43,0,3.64-3.32.01-6.65-.02-9.97,0,0,1.21,0,2.43,0,3.64-1.66,0-3.33-.01-4.99,0,0,1.21,0,2.43,0,3.64H0v-3.64c2.21,0,4.43.01,6.65,0,0-1.21,0-2.43,0-3.64,1.66,0,3.33.01,4.99,0,0-1.21,0-2.43,0-3.64,3.32,0,6.65.01,9.97,0Z"/>
 <path d="M36.57,41.91c0-.63-.08-3.59.1-3.64h1.57c0,1.21,0,2.43,0,3.64.55,0,1.11,0,1.66,0,0-1.21,0-2.43,0-3.64h3.32c0,1.21,0,2.43,0,3.64,1.66,0,3.33,0,4.99,0,0,1.21,0,2.43,0,3.64,2.77.02,5.54,0,8.31,0,0,1.21,0,2.43,0,3.64,2.21.02,4.44-.01,6.65,0v3.64h-6.65c0-1.21,0-2.43,0-3.64-2.77-.02-5.54.01-8.31,0,0-1.21,0-2.43,0-3.64-1.66,0-3.33,0-4.99,0,0-1.21,0-2.43,0-3.64-1.11,0-2.22,0-3.32,0,0,1.21,0,2.43,0,3.64h-1.57c-.17-.05-.09-3-.1-3.64-.55,0-1.11,0-1.66,0,0,1.21,0,2.43,0,3.64-1.11,0-2.22-.01-3.33,0,0,1.21,0,2.43,0,3.64h-3.32c0-1.21,0-2.43,0-3.64-2.21.02-4.44,0-6.65,0,0,.63.08,3.59-.1,3.64h-1.57c0-1.21,0-2.43,0-3.64-2.77,0-5.54-.02-8.31,0,0,1.21,0,2.43,0,3.64-1.66,0-3.33-.01-4.99,0,0,1.21,0,2.43,0,3.64h-1.57c-.18-.05-.09-2.99-.1-3.64-.55,0-1.11,0-1.66,0,0,1.21,0,2.43,0,3.64H0v-3.64c1.66,0,3.33.01,4.99,0,0-1.21,0-2.43,0-3.64h1.57c.18.05.09,2.99.1,3.64.55,0,1.11,0,1.66,0,0-1.21,0-2.43,0-3.64,1.66,0,3.33.01,4.99,0,0-1.21,0-2.43,0-3.64h8.31c0,1.21,0,2.43,0,3.64.55,0,1.11,0,1.66,0,0-1.21,0-2.43,0-3.64h6.65c0,1.21,0,2.43,0,3.64,1.11,0,2.22.01,3.32,0,0-1.21,0-2.43,0-3.64,1.11,0,2.22.02,3.33,0Z"/>
 <path d="M21.61,30.37c0-1.21,0-2.43,0-3.64h3.32c0,1.21,0,2.43,0,3.64.55,0,1.11,0,1.66,0,.01-.64-.09-3.58.1-3.64h1.57c0,1.21,0,2.43,0,3.64,1.11,0,2.22,0,3.32,0,0-1.21,0-2.43,0-3.64h1.57c.17.05.09,3,.1,3.64,1.66,0,3.33,0,4.99,0,0,1.21,0,2.43,0,3.64,1.11,0,2.22,0,3.32,0,0-1.21,0-2.43,0-3.64h1.57c.18.05.09,2.99.1,3.64.55,0,1.11,0,1.66,0,0-1.21,0-2.43,0-3.64h6.65c0,1.21,0,2.43,0,3.64,1.66,0,3.33,0,4.99,0,0,1.21,0,2.43,0,3.64,2.21.01,4.44,0,6.65,0v3.64h-6.65c0-1.21,0-2.43,0-3.64-1.66,0-3.33,0-4.99,0,0-1.21,0-2.43,0-3.64-2.21-.01-4.43,0-6.65,0,0,1.21,0,2.43,0,3.64h-1.57c-.18-.05-.09-2.99-.1-3.64-.55,0-1.11,0-1.66,0,0,1.21,0,2.43,0,3.64h-3.32c0-1.21,0-2.43,0-3.64-1.66,0-3.33,0-4.99,0,0-1.21,0-2.43,0-3.64-.55,0-1.11,0-1.66,0,0,1.21,0,2.43,0,3.64h-3.32c0-1.21,0-2.43,0-3.64-.55,0-1.11,0-1.66,0-.01.64.09,3.58-.1,3.64h-1.57c0-1.21,0-2.43,0-3.64-1.11,0-2.22-.04-3.32,0,0,1.21,0,2.43,0,3.64-.55.01-1.11-.02-1.66,0,0,1.21,0,2.43,0,3.64h-1.57c-.18-.05-.09-2.99-.1-3.64-.55,0-1.11,0-1.66,0,0,.63.08,3.59-.1,3.64h-1.57c0-1.21,0-2.43,0-3.64-.55,0-1.11,0-1.66,0,0,1.21,0,2.43,0,3.64-2.21,0-4.44-.02-6.65,0,0,1.21,0,2.43,0,3.64H0v-3.64c2.21,0,4.43.02,6.65,0,0-1.21,0-2.43,0-3.64,2.21,0,4.44.02,6.65,0,0-.63-.08-3.59.1-3.64h1.57c0,1.21,0,2.43,0,3.64.55,0,1.11,0,1.66,0,0-1.21,0-2.43,0-3.64h1.57c.18.05.09,2.99.1,3.64.55,0,1.11.02,1.66,0,0-1.21,0-2.43,0-3.64.55-.01,1.11.02,1.66,0Z"/>
 </g>
 </g>
 </g>
</svg>
